<?xml version="1.0" standalone="no"?>
<!DOCTYPE svg PUBLIC "-//W3C//DTD SVG 20010904//EN"
 "http://www.w3.org/TR/2001/REC-SVG-20010904/DTD/svg10.dtd">
<svg version="1.0" xmlns="http://www.w3.org/2000/svg"
 width="260.000000pt" height="260.000000pt" viewBox="0 0 260.000000 260.000000"
 preserveAspectRatio="xMidYMid meet">
<metadata>
Created by potrace 1.11, written by Peter Selinger 2001-2013
</metadata>
<g transform="translate(0.000000,260.000000) scale(0.100000,-0.100000)"
fill="#000000" stroke="none">
<path d="M537 2504 c-100 -17 -173 -64 -235 -151 -43 -61 -54 -110 -57 -258
-3 -124 -6 -145 -25 -178 -33 -56 -24 -112 27 -157 31 -27 43 -47 53 -90 17
-75 62 -155 119 -215 49 -51 51 -59 42 -141 0 -6 -74 -32 -163 -58 -183 -54
-229 -78 -258 -136 -20 -38 -20 -54 -18 -526 3 -451 4 -488 20 -498 13 -8 23
-8 35 0 17 10 18 45 20 465 1 250 2 468 2 486 2 56 34 80 161 118 122 37 129
36 131 -15 2 -54 58 -297 102 -440 88 -284 263 -620 323 -620 44 0 41 40 -10
116 -25 37 -46 71 -46 76 0 4 15 31 34 60 116 182 210 451 255 727 12 68 22
126 24 128 6 6 227 -65 243 -78 23 -19 64 -3 64 25 0 34 -33 51 -183 97 -239
73 -212 59 -213 115 -2 46 1 53 45 99 69 74 110 151 125 237 2 15 25 46 50 70
42 41 45 46 42 90 -1 25 -11 59 -21 75 -17 24 -20 49 -21 178 -1 168 -9 198
-69 259 -19 20 -35 41 -35 46 0 20 -63 79 -97 91 -47 15 -383 18 -466 3z m460
-84 c13 -8 29 -31 37 -51 8 -20 25 -43 39 -52 48 -31 57 -71 57 -244 0 -147 2
-161 20 -178 11 -10 20 -31 20 -47 0 -22 -6 -31 -27 -38 -50 -18 -57 -25 -60
-73 -16 -206 -209 -359 -412 -326 -170 27 -295 164 -306 334 -2 32 -19 54 -45
58 -28 4 -50 39 -43 68 6 23 33 32 101 34 28 1 56 5 61 11 4 5 16 32 26 59 10
28 21 53 24 57 3 3 49 9 101 13 159 11 172 13 265 35 146 36 199 70 163 106
-16 16 -22 15 -95 -9 -43 -14 -94 -28 -113 -31 -19 -3 -45 -8 -57 -10 -36 -7
-143 -17 -226 -21 -42 -1 -84 -8 -91 -15 -8 -6 -22 -36 -32 -66 -16 -51 -19
-54 -50 -54 l-33 0 2 75 c1 41 -1 75 -4 75 -9 0 8 102 24 141 31 74 94 128
181 154 59 18 444 14 473 -5z m-252 -1087 c44 3 99 12 123 20 l42 15 0 -33 c0
-35 -13 -45 -142 -119 l-46 -27 -91 57 c-85 52 -91 58 -91 89 l0 33 63 -20
c48 -15 80 -19 142 -15z m-128 -166 l52 -30 -30 -41 c-62 -85 -51 -81 -105
-45 -27 18 -51 34 -53 36 -2 1 -10 32 -16 69 -12 63 -12 66 9 74 15 6 31 2 56
-13 19 -11 58 -34 87 -50z m377 46 c-1 -4 -5 -33 -8 -63 -7 -58 -9 -61 -86
-107 l-37 -22 -41 57 c-30 40 -38 58 -29 63 6 4 45 27 86 52 57 34 79 43 95
37 12 -4 20 -12 20 -17z m-219 -222 c0 -25 -3 -26 -50 -26 -47 0 -50 2 -51 25
0 14 11 40 24 58 l25 33 26 -32 c15 -17 27 -43 26 -58z m-223 -43 c14 -10 33
-18 40 -18 22 0 46 -32 42 -55 -2 -11 -5 -38 -9 -60 -3 -22 -10 -67 -15 -100
-5 -33 -10 -64 -11 -70 -1 -24 -82 237 -94 308 -6 31 -4 30 47 -5z m383 -55
c-12 -49 -35 -128 -50 -177 -31 -97 -35 -96 -49 10 -3 27 -8 63 -11 79 -18
107 -23 96 65 144 30 16 58 30 61 30 4 1 -3 -38 -16 -86z m-191 -55 c4 -24 9
-61 11 -83 3 -22 7 -47 10 -55 2 -8 7 -42 10 -75 3 -33 10 -76 14 -95 6 -30 1
-45 -33 -104 l-40 -70 -31 66 -32 66 13 79 c6 43 15 102 19 132 4 30 8 61 10
70 1 9 6 36 10 61 12 75 28 79 39 8z"/>
<path d="M522 1878 c-20 -20 -15 -86 7 -98 19 -10 50 -5 52 9 5 31 4 69 -3 84
-10 20 -39 22 -56 5z"/>
<path d="M872 1873 c-22 -41 -1 -102 35 -103 29 0 45 84 21 108 -17 17 -46 15
-56 -5z"/>
<path d="M612 1658 c-46 -46 63 -124 145 -103 44 11 95 54 91 77 -6 38 -33 45
-69 19 -39 -29 -69 -30 -107 -2 -35 24 -43 26 -60 9z"/>
<path d="M1791 2385 l-38 -35 -38 16 c-125 52 -260 -71 -223 -203 7 -27 4 -40
-21 -85 -34 -60 -59 -126 -68 -178 -7 -43 -11 -266 -4 -299 2 -13 24 -43 47
-66 24 -23 44 -51 44 -62 0 -11 9 -45 19 -76 11 -30 17 -57 15 -60 -3 -3 -31
-98 -64 -212 -32 -113 -60 -207 -62 -208 -66 -34 -85 -48 -107 -81 -24 -36
-25 -47 -28 -182 -3 -138 -2 -144 20 -159 21 -15 22 -21 23 -201 0 -119 5
-189 12 -196 6 -6 22 -8 36 -4 29 7 28 1 27 266 l0 125 49 2 c28 0 50 -2 51
-6 0 -3 2 -87 2 -186 1 -99 6 -186 10 -192 10 -16 39 -17 55 -1 9 9 12 82 12
265 0 306 -2 313 -105 388 -22 17 -42 33 -45 36 -3 3 -14 11 -25 17 -18 10
-16 12 24 29 l44 19 56 -37 c119 -78 251 -110 436 -105 176 5 311 44 405 117
34 26 36 26 69 10 37 -17 52 -41 27 -41 -9 0 -16 -3 -16 -7 0 -5 -17 -19 -37
-33 -53 -36 -83 -69 -99 -106 -19 -45 -20 -534 -2 -552 17 -17 46 -15 56 6 5
9 9 95 8 190 0 96 1 178 4 183 3 5 27 8 52 6 l46 -2 -1 -182 c0 -190 5 -213
43 -213 10 0 21 8 25 18 4 9 8 97 9 194 1 172 2 178 24 193 21 15 22 23 22
146 0 94 -4 140 -15 166 -17 41 -68 91 -102 99 -16 5 -26 19 -37 57 -8 29 -36
126 -62 216 l-46 164 19 81 c44 177 3 295 -122 351 -28 13 -107 35 -175 50
-139 30 -184 46 -251 87 -25 15 -49 28 -52 28 -4 0 -27 -28 -52 -62 -48 -66
-114 -118 -149 -118 -12 0 -31 -3 -43 -6 -21 -6 -23 -3 -23 38 0 70 18 147 50
215 l29 63 35 -15 c45 -19 94 -19 139 0 39 16 84 65 93 100 5 20 10 22 43 18
44 -6 89 14 120 53 21 26 23 27 64 14 118 -35 222 -121 275 -226 38 -77 44
-100 51 -218 5 -88 8 -100 27 -106 36 -14 46 3 49 81 6 259 -147 474 -388 544
-40 12 -61 24 -68 39 -16 35 -70 66 -117 66 -34 0 -49 -7 -81 -35z m119 -57
c25 -27 25 -29 0 -61 -23 -30 -46 -29 -71 2 -19 23 -16 48 9 69 23 17 38 15
62 -10z m-197 -48 c35 -28 44 -79 21 -119 -36 -62 -127 -62 -159 -1 -23 44
-19 78 14 111 36 35 86 39 124 9z m94 -464 c44 -23 88 -35 288 -81 91 -21 148
-55 166 -97 8 -19 14 -66 14 -109 -1 -65 -6 -86 -33 -142 -112 -227 -418 -273
-585 -88 -51 56 -78 114 -91 196 -12 66 -14 71 -48 87 -44 21 -52 32 -44 62 6
26 23 35 76 42 50 7 111 46 162 103 23 28 44 50 45 51 1 0 23 -11 50 -24z
m499 -707 c24 -84 43 -153 41 -154 -5 -4 -190 74 -200 84 -6 6 -11 36 -12 67
-1 53 1 57 31 77 18 12 45 35 61 52 15 17 30 30 32 29 2 -2 23 -71 47 -155z
m-706 141 c0 -5 24 -27 53 -50 l54 -40 -2 -56 c-1 -30 -6 -59 -11 -64 -5 -5
-54 -27 -107 -49 -79 -32 -97 -37 -93 -23 3 9 22 76 42 147 20 72 38 133 41
138 6 10 23 9 23 -3z m325 -135 c50 0 100 4 111 8 20 7 22 4 26 -46 6 -78 27
-100 141 -148 l98 -42 -28 -18 c-35 -23 -163 -67 -223 -76 -75 -11 -231 -6
-305 10 -78 17 -212 75 -198 87 4 4 44 21 88 39 44 17 87 37 95 44 31 25 50
67 50 112 0 45 0 45 28 38 15 -5 68 -8 117 -8z m-513 -423 c55 -40 82 -86 71
-118 -2 -6 -34 -11 -73 -11 l-70 -1 -1 36 c-2 38 -1 88 0 132 1 14 5 20 9 15
4 -6 33 -29 64 -53z m1089 36 c4 -52 1 -147 -4 -155 -10 -15 -123 -15 -135 0
-16 22 6 73 45 103 21 16 47 36 57 46 23 21 36 23 37 6z"/>
<path d="M1723 1662 c-14 -9 -23 -54 -16 -81 6 -25 39 -37 58 -21 8 7 15 29
15 49 0 50 -25 74 -57 53z"/>
<path d="M2072 1658 c-17 -17 -15 -83 3 -98 16 -13 54 -5 56 13 6 49 3 71 -9
83 -17 17 -34 18 -50 2z"/>
<path d="M1807 1435 c-47 -46 56 -118 145 -101 73 14 121 94 67 111 -14 5 -28
0 -45 -16 -30 -28 -78 -28 -108 0 -26 25 -39 26 -59 6z"/>
<path d="M1146 861 c-14 -16 -16 -60 -16 -382 0 -271 3 -368 12 -377 17 -17
46 -15 56 6 6 13 9 652 3 734 -2 29 -36 40 -55 19z"/>
<path d="M253 858 c-12 -16 -12 -737 0 -755 11 -17 42 -16 57 2 7 8 11 35 8
65 -1 27 1 50 5 50 5 0 6 4 2 9 -3 6 -5 45 -5 88 1 43 1 87 1 98 -1 11 0 40 0
65 0 25 1 52 0 60 0 8 0 80 0 159 0 94 -4 148 -12 157 -14 17 -43 18 -56 2z"/>
</g>
</svg>
