<?xml version="1.0" standalone="no"?>
<!DOCTYPE svg PUBLIC "-//W3C//DTD SVG 20010904//EN"
 "http://www.w3.org/TR/2001/REC-SVG-20010904/DTD/svg10.dtd">
<svg version="1.0" xmlns="http://www.w3.org/2000/svg"
 width="512.000000pt" height="512.000000pt" viewBox="0 0 512.000000 512.000000"
 preserveAspectRatio="xMidYMid meet">
<metadata>
Created by potrace 1.14, written by Peter Selinger 2001-2017
</metadata>
<g transform="translate(0.000000,512.000000) scale(0.100000,-0.100000)"
fill="#000000" stroke="none">
<path d="M190 5061 c-113 -35 -181 -119 -186 -230 -5 -119 8 -138 291 -394 28
-25 74 -68 104 -95 l55 -51 30 26 c58 48 251 227 328 303 54 54 79 88 87 116
71 257 -222 440 -416 260 l-25 -24 -51 38 c-69 53 -149 71 -217 51z"/>
<path d="M4720 4682 c-82 -23 -125 -74 -125 -148 0 -57 34 -112 85 -139 73
-38 178 6 208 85 21 57 -10 148 -62 180 -25 16 -85 28 -106 22z"/>
<path d="M2830 4604 c-47 -7 -92 -13 -100 -14 -8 0 26 -22 75 -48 239 -127
408 -276 549 -482 170 -248 258 -526 260 -820 1 -163 -6 -237 -34 -360 -10
-46 -17 -86 -16 -87 4 -4 799 307 809 316 4 4 -27 99 -68 212 -42 112 -103
278 -136 369 -122 333 -218 487 -404 646 -152 129 -331 216 -535 259 -101 22
-294 26 -400 9z"/>
<path d="M1950 4385 c-318 -55 -582 -214 -769 -465 -79 -106 -127 -205 -210
-430 -40 -107 -77 -206 -83 -220 -11 -26 -57 -152 -114 -309 -19 -51 -34 -97
-34 -101 0 -4 19 -14 43 -23 23 -9 123 -46 222 -82 339 -125 370 -137 405
-150 19 -8 202 -76 405 -151 204 -74 429 -158 500 -184 306 -114 573 -213 606
-224 l36 -13 16 46 c8 25 35 100 60 166 261 707 254 686 273 824 6 45 6 245 0
281 -3 19 -8 51 -10 70 -10 74 -59 219 -106 316 -160 330 -459 561 -829 640
-99 21 -314 26 -411 9z"/>
<path d="M4385 2783 c-60 -24 -220 -87 -355 -140 -135 -52 -258 -101 -275
-108 -16 -6 -79 -31 -140 -55 -60 -23 -119 -46 -130 -51 -11 -5 -31 -13 -45
-18 -16 -6 -30 -22 -39 -47 -21 -62 -78 -216 -141 -384 -50 -134 -67 -197 -85
-320 -2 -14 -6 -44 -10 -67 -4 -24 -3 -43 1 -43 5 0 58 18 119 41 60 23 169
63 240 89 72 27 263 98 425 158 162 60 378 140 480 178 102 38 187 69 190 70
3 0 12 4 20 7 28 12 155 58 200 74 25 8 49 19 54 23 5 5 -51 106 -129 232 -76
123 -163 264 -194 315 -31 51 -60 92 -66 91 -5 0 -59 -20 -120 -45z"/>
<path d="M576 2542 c-80 -128 -276 -444 -276 -447 0 -2 -17 -30 -39 -62 l-39
-58 307 -113 c168 -62 315 -117 326 -122 11 -5 272 -101 580 -215 308 -113
576 -212 595 -220 34 -14 509 -190 663 -246 68 -25 77 -26 78 -11 2 21 5 45
14 97 3 22 8 54 11 70 3 17 9 55 14 85 5 30 12 75 15 100 3 25 10 70 15 100 6
30 13 75 16 100 3 25 10 65 14 90 5 25 8 45 7 46 -5 2 -241 90 -362 134 -77
29 -522 194 -990 367 -467 173 -867 321 -888 329 l-37 13 -24 -37z"/>
<path d="M4090 1563 c-52 -19 -135 -50 -185 -68 -189 -68 -481 -176 -500 -185
-11 -5 -37 -14 -57 -21 -21 -7 -38 -16 -38 -20 0 -15 117 -80 180 -100 279
-89 582 65 681 345 11 32 19 64 17 71 -2 10 -29 3 -98 -22z"/>
<path d="M945 1344 c3 -20 10 -44 15 -53 4 -9 21 -43 36 -76 36 -76 138 -179
219 -222 161 -84 342 -89 499 -13 33 16 72 38 85 48 24 19 22 42 -3 42 -7 0
-183 64 -392 141 -208 78 -399 148 -423 155 l-43 14 7 -36z"/>
<path d="M4377 816 c-95 -35 -156 -117 -164 -219 -7 -88 20 -149 101 -224 131
-121 273 -252 311 -286 l40 -36 29 27 c16 15 37 34 46 42 281 256 331 305 351
346 87 180 -51 381 -248 361 -55 -6 -123 -38 -157 -76 l-18 -20 -43 34 c-71
59 -170 79 -248 51z"/>
<path d="M548 650 c-74 -13 -128 -73 -128 -142 0 -50 12 -78 51 -116 75 -73
202 -43 243 58 11 29 11 43 1 83 -21 81 -92 131 -167 117z"/>
<path d="M3083 609 c-54 -26 -71 -41 -88 -83 -41 -97 37 -206 149 -206 47 0
112 46 131 93 49 123 -77 251 -192 196z"/>
</g>
</svg>
